<svg viewBox="0 0 160 120" fill="none" xmlns="http://www.w3.org/2000/svg" aria-hidden="true">
        <defs><linearGradient id="bed-f" x1="20" y1="50" x2="140" y2="96" gradientUnits="userSpaceOnUse"><stop stop-color="#1a2540"/><stop offset="1" stop-color="#0e1220"/></linearGradient></defs>
        <rect x="20" y="52" width="120" height="34" rx="6" fill="url(#bed-f)" stroke="rgba(255,255,255,.15)" stroke-width="1.1"/>
        <path d="M24 52 L24 38 a6 6 0 0 1 6 -6 L48 32 a6 6 0 0 1 6 6 L54 52 Z" fill="rgba(90,154,255,.12)" stroke="rgba(255,255,255,.15)" stroke-width="1"/>
        <rect x="20" y="64" width="120" height="22" rx="4" fill="rgba(90,154,255,.06)" stroke="rgba(255,255,255,.1)" stroke-width=".6"/>
        <line x1="20" y1="64" x2="140" y2="64" stroke="rgba(255,255,255,.14)" stroke-width=".8"/>
        <rect x="22" y="86" width="6" height="14" rx="1" fill="rgba(255,255,255,.1)"/><rect x="132" y="86" width="6" height="14" rx="1" fill="rgba(255,255,255,.1)"/>
        <g transform="translate(96,72)">
            <ellipse cx="0" cy="0" rx="7" ry="5.5" fill="rgba(245,158,11,.35)" stroke="#f59e0b" stroke-width="1"/>
            <ellipse cx="0" cy="-2" rx="3.5" ry="2.4" fill="rgba(245,158,11,.5)" stroke="#fbbf24" stroke-width=".7"/>
            <line x1="0" y1="-2" x2="0" y2="4" stroke="rgba(255,255,255,.25)" stroke-width=".5"/>
            <line x1="-5" y1="-2" x2="-9" y2="-4" stroke="#f59e0b" stroke-width=".7"/><line x1="5" y1="-2" x2="9" y2="-4" stroke="#f59e0b" stroke-width=".7"/>
            <line x1="-5" y1="1" x2="-9" y2="1" stroke="#f59e0b" stroke-width=".7"/><line x1="5" y1="1" x2="9" y2="1" stroke="#f59e0b" stroke-width=".7"/>
            <line x1="-4" y1="4" x2="-7" y2="6" stroke="#f59e0b" stroke-width=".7"/><line x1="4" y1="4" x2="7" y2="6" stroke="#f59e0b" stroke-width=".7"/>
        </g>
        <g transform="translate(112,76) scale(.7)" opacity=".7">
            <ellipse cx="0" cy="0" rx="7" ry="5.5" fill="rgba(245,158,11,.3)" stroke="#f59e0b" stroke-width="1"/>
            <line x1="-5" y1="-1" x2="-9" y2="-3" stroke="#f59e0b" stroke-width=".7"/><line x1="5" y1="-1" x2="9" y2="-3" stroke="#f59e0b" stroke-width=".7"/>
        </g>
        <path d="M66 72 l2 2 l4 -5" stroke="#22c55e" stroke-width="1.4" stroke-linecap="round" fill="none" opacity=".85"/>
    </svg>