<svg viewBox="0 0 160 120" fill="none" xmlns="http://www.w3.org/2000/svg" aria-hidden="true">
        <defs><linearGradient id="bee-hc" x1="20" y1="20" x2="60" y2="90" gradientUnits="userSpaceOnUse"><stop stop-color="#1a2540"/><stop offset="1" stop-color="#0e1220"/></linearGradient>
        <linearGradient id="bee-b" x1="0" y1="0" x2="1" y2="0"><stop stop-color="#5a9aff"/><stop offset="1" stop-color="#0F3399"/></linearGradient></defs>
        <g stroke="rgba(245,158,11,.4)" stroke-width="1.1" fill="rgba(245,158,11,.06)">
            <polygon points="28,34 36,30 44,34 44,42 36,46 28,42"/>
            <polygon points="44,34 52,30 60,34 60,42 52,46 44,42"/>
            <polygon points="36,46 44,42 52,46 52,54 44,58 36,54"/>
            <polygon points="28,46 36,42 44,46 44,54 36,58 28,54"/>
            <polygon points="44,58 52,54 60,58 60,66 52,70 44,66"/>
            <polygon points="36,58 44,54 52,58 52,66 44,70 36,66"/>
        </g>
        <circle cx="44" cy="50" r="2" fill="rgba(245,158,11,.5)"/>
        <g transform="translate(104,62) rotate(15)">
            <ellipse cx="0" cy="0" rx="11" ry="8" fill="rgba(245,158,11,.4)" stroke="#f59e0b" stroke-width="1.1"/>
            <path d="M-9 -3 A11 8 0 0 0 -9 3" stroke="#0e1220" stroke-width="2.6" fill="none"/>
            <path d="M-2 -7 A11 8 0 0 0 -2 7" stroke="#0e1220" stroke-width="2.6" fill="none"/>
            <path d="M5 -6 A11 8 0 0 0 5 6" stroke="#0e1220" stroke-width="2.4" fill="none"/>
            <circle cx="-13" cy="0" r="4.5" fill="rgba(245,158,11,.5)" stroke="#f59e0b" stroke-width="1"/>
            <circle cx="-14.5" cy="-1.5" r="1" fill="#0e1220"/>
            <line x1="-15" y1="-3" x2="-19" y2="-7" stroke="#f59e0b" stroke-width=".8"/><line x1="-13" y1="-4" x2="-14" y2="-9" stroke="#f59e0b" stroke-width=".8"/>
            <ellipse cx="0" cy="-9" rx="9" ry="4" fill="rgba(90,154,255,.3)" stroke="rgba(90,154,255,.55)" stroke-width=".7"/>
            <ellipse cx="2" cy="-8" rx="6" ry="3" fill="rgba(90,154,255,.22)" stroke="rgba(90,154,255,.45)" stroke-width=".6"/>
        </g>
        <path d="M122 78 C130 80 134 88 132 96" stroke="rgba(245,158,11,.5)" stroke-width="1" stroke-dasharray="2 3" fill="none"/>
        <rect x="20" y="84" width="6" height="20" rx="1" fill="rgba(34,197,94,.12)" stroke="rgba(34,197,94,.4)" stroke-width=".8"/>
        <path d="M22 92 l1.6 1.6 l3 -3.6" stroke="#22c55e" stroke-width="1.2" stroke-linecap="round" fill="none"/>
        <text x="80" y="112" fill="rgba(34,197,94,.7)" font-size="7" font-weight="bold" text-anchor="middle" opacity=".85">RELOCATED</text>
    </svg>