<svg viewBox="0 0 160 120" fill="none" xmlns="http://www.w3.org/2000/svg" aria-hidden="true">
        <defs><linearGradient id="brd-led" x1="24" y1="70" x2="136" y2="80" gradientUnits="userSpaceOnUse"><stop stop-color="#1a2540"/><stop offset="1" stop-color="#0e1220"/></linearGradient>
        <linearGradient id="brd-b" x1="0" y1="0" x2="1" y2="0"><stop stop-color="#5a9aff"/><stop offset="1" stop-color="#0F3399"/></linearGradient></defs>
        <g stroke="rgba(90,154,255,.25)" stroke-width=".6">
            <line x1="34" y1="26" x2="34" y2="64"/><line x1="50" y1="26" x2="50" y2="64"/><line x1="66" y1="26" x2="66" y2="64"/><line x1="82" y1="26" x2="82" y2="64"/><line x1="98" y1="26" x2="98" y2="64"/><line x1="114" y1="26" x2="114" y2="64"/><line x1="126" y1="26" x2="126" y2="64"/>
            <line x1="28" y1="32" x2="132" y2="32"/><line x1="28" y1="44" x2="132" y2="44"/><line x1="28" y1="56" x2="132" y2="56"/>
        </g>
        <rect x="24" y="70" width="112" height="9" rx="2" fill="url(#brd-led)" stroke="rgba(255,255,255,.15)" stroke-width="1"/>
        <g stroke="rgba(90,154,255,.6)" stroke-width="1.4" stroke-linecap="round">
            <line x1="32" y1="70" x2="29" y2="58"/><line x1="42" y1="70" x2="42" y2="56"/><line x1="52" y1="70" x2="55" y2="58"/>
            <line x1="100" y1="70" x2="97" y2="58"/><line x1="110" y1="70" x2="110" y2="56"/><line x1="120" y1="70" x2="123" y2="58"/><line x1="130" y1="70" x2="133" y2="58"/>
        </g>
        <g transform="translate(78,64)">
            <ellipse cx="0" cy="0" rx="11" ry="8" fill="rgba(22,70,210,.4)" stroke="url(#brd-b)" stroke-width="1.2"/>
            <circle cx="-9" cy="-6" r="5" fill="rgba(22,70,210,.45)" stroke="rgba(90,154,255,.6)" stroke-width="1"/>
            <circle cx="-10" cy="-7" r="1.2" fill="rgba(255,255,255,.5)"/>
            <path d="M-13 -6 L-20 -5 L-13 -3 Z" fill="#fbbf24"/>
            <path d="M6 -3 C12 -7 14 0 10 4 C7 2 8 0 6 -3 Z" fill="rgba(90,154,255,.3)" stroke="rgba(90,154,255,.5)" stroke-width=".6"/>
            <line x1="-4" y1="8" x2="-4" y2="6" stroke="rgba(90,154,255,.6)" stroke-width="1.4"/><line x1="2" y1="8" x2="2" y2="6" stroke="rgba(90,154,255,.6)" stroke-width="1.4"/>
        </g>
    </svg>