<svg viewBox="0 0 160 120" fill="none" xmlns="http://www.w3.org/2000/svg" aria-hidden="true">
        <defs><radialGradient id="crc-glow" cx="80" cy="60" r="40" gradientUnits="userSpaceOnUse"><stop stop-color="#1646D2" stop-opacity=".22"/><stop offset="1" stop-color="#1646D2" stop-opacity="0"/></radialGradient>
        <linearGradient id="crc-b" x1="80" y1="36" x2="80" y2="92" gradientUnits="userSpaceOnUse"><stop stop-color="#5a9aff"/><stop offset="1" stop-color="#0F3399"/></linearGradient></defs>
        <ellipse cx="80" cy="62" rx="40" ry="30" fill="url(#crc-glow)"/>
        <ellipse cx="80" cy="62" rx="20" ry="28" fill="rgba(22,70,210,.32)" stroke="url(#crc-b)" stroke-width="1.4"/>
        <ellipse cx="80" cy="40" rx="9" ry="7" fill="rgba(22,70,210,.45)" stroke="rgba(90,154,255,.6)" stroke-width="1"/>
        <path d="M80 36 L80 90" stroke="rgba(255,255,255,.18)" stroke-width=".8"/>
        <path d="M72 48 C66 50 64 56 64 60 M88 48 C94 50 96 56 96 60" stroke="rgba(255,255,255,.12)" stroke-width=".6" fill="none"/>
        <line x1="75" y1="35" x2="60" y2="20" stroke="rgba(90,154,255,.7)" stroke-width="1.2" stroke-linecap="round"/>
        <line x1="85" y1="35" x2="100" y2="20" stroke="rgba(90,154,255,.7)" stroke-width="1.2" stroke-linecap="round"/>
        <g stroke="url(#crc-b)" stroke-width="1.6" stroke-linecap="round" fill="none">
            <path d="M62 50 L42 42 L36 36"/><path d="M62 62 L40 62 L32 58"/><path d="M62 74 L42 82 L36 90"/>
            <path d="M98 50 L118 42 L124 36"/><path d="M98 62 L120 62 L128 58"/><path d="M98 74 L118 82 L124 90"/>
        </g>
        <ellipse cx="80" cy="42" rx="2" ry="1.4" fill="rgba(255,255,255,.3)"/>
    </svg>