<svg viewBox="0 0 160 120" fill="none" xmlns="http://www.w3.org/2000/svg" aria-hidden="true">
        <defs><linearGradient id="cpc-b" x1="30" y1="20" x2="100" y2="100" gradientUnits="userSpaceOnUse"><stop stop-color="#1a2540"/><stop offset="1" stop-color="#0e1220"/></linearGradient>
        <radialGradient id="cpc-glow" cx="104" cy="60" r="28" gradientUnits="userSpaceOnUse"><stop stop-color="#5a9aff" stop-opacity=".3"/><stop offset="1" stop-color="#1646D2" stop-opacity="0"/></radialGradient></defs>
        <rect x="26" y="24" width="56" height="78" rx="3" fill="url(#cpc-b)" stroke="rgba(255,255,255,.15)" stroke-width="1"/>
        <rect x="50" y="40" width="56" height="62" rx="3" fill="url(#cpc-b)" stroke="rgba(255,255,255,.15)" stroke-width="1"/>
        <g fill="rgba(90,154,255,.28)">
            <rect x="32" y="32" width="7" height="7" rx="1"/><rect x="43" y="32" width="7" height="7" rx="1"/><rect x="54" y="32" width="7" height="7" rx="1"/><rect x="65" y="32" width="7" height="7" rx="1"/>
            <rect x="32" y="44" width="7" height="7" rx="1"/><rect x="43" y="44" width="7" height="7" rx="1"/>
            <rect x="32" y="56" width="7" height="7" rx="1"/><rect x="43" y="56" width="7" height="7" rx="1"/><rect x="54" y="56" width="7" height="7" rx="1"/><rect x="65" y="56" width="7" height="7" rx="1"/>
            <rect x="32" y="68" width="7" height="7" rx="1"/><rect x="65" y="68" width="7" height="7" rx="1"/>
        </g>
        <g fill="rgba(90,154,255,.22)">
            <rect x="56" y="48" width="6" height="7" rx="1"/><rect x="66" y="48" width="6" height="7" rx="1"/><rect x="76" y="48" width="6" height="7" rx="1"/>
            <rect x="56" y="60" width="6" height="7" rx="1"/><rect x="66" y="60" width="6" height="7" rx="1"/><rect x="76" y="60" width="6" height="7" rx="1"/>
            <rect x="56" y="72" width="6" height="7" rx="1"/><rect x="76" y="72" width="6" height="7" rx="1"/>
        </g>
        <rect x="40" y="86" width="14" height="16" rx="1" fill="rgba(22,70,210,.22)" stroke="rgba(90,154,255,.4)" stroke-width=".7"/>
        <rect x="62" y="88" width="12" height="14" rx="1" fill="rgba(22,70,210,.2)" stroke="rgba(90,154,255,.35)" stroke-width=".7"/>
        <ellipse cx="116" cy="62" rx="26" ry="28" fill="url(#cpc-glow)"/>
        <path d="M116 34 L138 42 L138 64 C138 82 126 91 116 96 C106 91 94 82 94 64 L94 42 Z" fill="rgba(22,70,210,.16)" stroke="rgba(90,154,255,.55)" stroke-width="1.4"/>
        <path d="M108 64 l5 5 l11 -13" stroke="#22c55e" stroke-width="2" stroke-linecap="round" stroke-linejoin="round" fill="none"/>
    </svg>