<svg viewBox="0 0 160 120" fill="none" xmlns="http://www.w3.org/2000/svg" aria-hidden="true">
        <defs><linearGradient id="eol-h" x1="30" y1="26" x2="90" y2="92" gradientUnits="userSpaceOnUse"><stop stop-color="#1a2540"/><stop offset="1" stop-color="#0e1220"/></linearGradient>
        <linearGradient id="eol-k" x1="0" y1="0" x2="1" y2="1"><stop stop-color="#5a9aff"/><stop offset="1" stop-color="#1646D2"/></linearGradient></defs>
        <path d="M30 52 L60 28 L90 52 L90 92 L30 92 Z" fill="url(#eol-h)" stroke="rgba(255,255,255,.15)" stroke-width="1.1"/>
        <path d="M24 54 L60 24 L96 54" fill="none" stroke="rgba(90,154,255,.4)" stroke-width="1.4"/>
        <rect x="40" y="62" width="12" height="12" rx="1" fill="rgba(90,154,255,.12)" stroke="rgba(90,154,255,.3)" stroke-width=".6"/>
        <rect x="56" y="62" width="14" height="30" rx="1" fill="rgba(22,70,210,.2)" stroke="rgba(90,154,255,.4)" stroke-width=".7"/>
        <circle cx="66" cy="78" r="1.4" fill="rgba(90,154,255,.7)"/>
        <g transform="translate(108,40)">
            <circle cx="0" cy="0" r="8" fill="none" stroke="url(#eol-k)" stroke-width="2.4"/>
            <circle cx="0" cy="0" r="2.6" fill="rgba(90,154,255,.5)"/>
            <rect x="-1.5" y="7" width="3" height="20" fill="url(#eol-k)"/>
            <rect x="1.5" y="16" width="4" height="3" fill="url(#eol-k)"/>
            <rect x="1.5" y="21" width="3" height="3" fill="url(#eol-k)"/>
        </g>
        <path d="M120 66 C119 76 115 81 115 86 a5 5 0 0 0 10 0 C125 81 121 76 120 66 Z" fill="rgba(22,70,210,.25)" stroke="rgba(90,154,255,.55)" stroke-width="1.2"/>
        <ellipse cx="118" cy="82" rx="1.8" ry="2.6" fill="rgba(255,255,255,.3)"/>
        <g transform="translate(36,96)">
            <circle cx="0" cy="0" r="6" fill="rgba(34,197,94,.12)" stroke="rgba(34,197,94,.5)" stroke-width="1"/>
            <path d="M-2.6 0 l1.8 1.8 l3.4 -3.8" stroke="#22c55e" stroke-width="1.4" stroke-linecap="round" fill="none"/>
        </g>
    </svg>