<svg viewBox="0 0 160 120" fill="none" xmlns="http://www.w3.org/2000/svg" aria-hidden="true">
        <defs><radialGradient id="fle-glow" cx="60" cy="62" r="36" gradientUnits="userSpaceOnUse"><stop stop-color="#1646D2" stop-opacity=".2"/><stop offset="1" stop-color="#1646D2" stop-opacity="0"/></radialGradient>
        <linearGradient id="fle-b" x1="0" y1="0" x2="0" y2="1"><stop stop-color="#5a9aff"/><stop offset="1" stop-color="#0F3399"/></linearGradient></defs>
        <ellipse cx="62" cy="66" rx="36" ry="30" fill="url(#fle-glow)"/>
        <ellipse cx="58" cy="74" rx="16" ry="13" fill="rgba(22,70,210,.32)" stroke="rgba(90,154,255,.55)" stroke-width="1.2"/>
        <ellipse cx="44" cy="56" rx="5" ry="7" fill="rgba(22,70,210,.32)" stroke="rgba(90,154,255,.5)" stroke-width="1"/>
        <ellipse cx="58" cy="50" rx="5" ry="7" fill="rgba(22,70,210,.32)" stroke="rgba(90,154,255,.5)" stroke-width="1"/>
        <ellipse cx="72" cy="56" rx="5" ry="7" fill="rgba(22,70,210,.32)" stroke="rgba(90,154,255,.5)" stroke-width="1"/>
        <ellipse cx="82" cy="68" rx="4.5" ry="6" fill="rgba(22,70,210,.3)" stroke="rgba(90,154,255,.5)" stroke-width="1"/>
        <g transform="translate(108,44)">
            <ellipse cx="0" cy="0" rx="5" ry="8" fill="rgba(245,158,11,.4)" stroke="#f59e0b" stroke-width="1" transform="rotate(20)"/>
            <circle cx="-3" cy="-7" r="2.4" fill="#fbbf24"/>
            <line x1="-4" y1="-8" x2="-8" y2="-12" stroke="#f59e0b" stroke-width=".7"/><line x1="-2" y1="-9" x2="-3" y2="-14" stroke="#f59e0b" stroke-width=".7"/>
            <path d="M3 4 L14 16" stroke="#f59e0b" stroke-width="1.4" stroke-linecap="round"/>
            <path d="M4 0 L16 6" stroke="#f59e0b" stroke-width="1.2" stroke-linecap="round"/>
        </g>
        <path d="M122 70 C121 80 117 85 117 90 a5 5 0 0 0 10 0 C127 85 123 80 122 70 Z" fill="rgba(22,70,210,.25)" stroke="url(#fle-b)" stroke-width="1.2"/>
        <ellipse cx="120" cy="86" rx="1.8" ry="2.6" fill="rgba(255,255,255,.3)"/>
    </svg>