<svg viewBox="0 0 160 120" fill="none" xmlns="http://www.w3.org/2000/svg" aria-hidden="true">
        <defs><radialGradient id="msq-glow" cx="80" cy="56" r="42" gradientUnits="userSpaceOnUse"><stop stop-color="#1646D2" stop-opacity=".2"/><stop offset="1" stop-color="#1646D2" stop-opacity="0"/></radialGradient>
        <linearGradient id="msq-b" x1="0" y1="0" x2="1" y2="0"><stop stop-color="#5a9aff"/><stop offset="1" stop-color="#0F3399"/></linearGradient></defs>
        <ellipse cx="80" cy="56" rx="42" ry="30" fill="url(#msq-glow)"/>
        <ellipse cx="84" cy="58" rx="16" ry="6" fill="rgba(22,70,210,.4)" stroke="url(#msq-b)" stroke-width="1.2" transform="rotate(-8 84 58)"/>
        <circle cx="64" cy="52" r="6" fill="rgba(22,70,210,.42)" stroke="rgba(90,154,255,.6)" stroke-width="1"/>
        <circle cx="62" cy="50" r="1.6" fill="rgba(255,255,255,.4)"/>
        <line x1="60" y1="55" x2="40" y2="72" stroke="rgba(90,154,255,.7)" stroke-width="1.2" stroke-linecap="round"/>
        <line x1="62" y1="47" x2="48" y2="34" stroke="rgba(90,154,255,.6)" stroke-width=".9" stroke-linecap="round"/>
        <line x1="66" y1="46" x2="56" y2="32" stroke="rgba(90,154,255,.6)" stroke-width=".9" stroke-linecap="round"/>
        <ellipse cx="92" cy="44" rx="16" ry="6" fill="rgba(90,154,255,.18)" stroke="rgba(90,154,255,.45)" stroke-width=".7" transform="rotate(-22 92 44)"/>
        <ellipse cx="98" cy="50" rx="14" ry="5" fill="rgba(90,154,255,.12)" stroke="rgba(90,154,255,.35)" stroke-width=".6" transform="rotate(-10 98 50)"/>
        <g stroke="url(#msq-b)" stroke-width="1.4" stroke-linecap="round" fill="none">
            <path d="M76 62 L70 78 L66 86"/><path d="M84 62 L82 80 L80 88"/><path d="M92 60 L94 78 L96 86"/>
        </g>
        <g transform="translate(36,84)">
            <circle cx="0" cy="0" r="10" fill="none" stroke="rgba(34,197,94,.55)" stroke-width="1.8"/>
            <line x1="-7" y1="7" x2="7" y2="-7" stroke="rgba(34,197,94,.55)" stroke-width="1.8"/>
            <circle cx="0" cy="0" r="3" fill="rgba(245,158,11,.35)"/>
        </g>
    </svg>