<svg viewBox="0 0 160 120" fill="none" xmlns="http://www.w3.org/2000/svg" aria-hidden="true">
        <defs><linearGradient id="ppi-doc" x1="34" y1="20" x2="100" y2="104" gradientUnits="userSpaceOnUse"><stop stop-color="#1a2540"/><stop offset="1" stop-color="#0e1220"/></linearGradient></defs>
        <rect x="34" y="22" width="62" height="82" rx="5" fill="url(#ppi-doc)" stroke="rgba(255,255,255,.15)" stroke-width="1.1"/>
        <rect x="54" y="16" width="22" height="10" rx="3" fill="rgba(90,154,255,.25)" stroke="rgba(90,154,255,.5)" stroke-width=".9"/>
        <rect x="42" y="36" width="20" height="6" rx="1.5" fill="rgba(90,154,255,.3)"/>
        <g>
            <rect x="42" y="50" width="7" height="7" rx="1.5" fill="rgba(34,197,94,.12)" stroke="rgba(34,197,94,.45)" stroke-width=".7"/>
            <path d="M43.5 53.5 l1.5 1.5 l3 -3.5" stroke="#22c55e" stroke-width="1.3" stroke-linecap="round" fill="none"/>
            <rect x="53" y="51" width="34" height="4" rx="1" fill="rgba(255,255,255,.12)"/>
        </g>
        <g>
            <rect x="42" y="62" width="7" height="7" rx="1.5" fill="rgba(34,197,94,.12)" stroke="rgba(34,197,94,.45)" stroke-width=".7"/>
            <path d="M43.5 65.5 l1.5 1.5 l3 -3.5" stroke="#22c55e" stroke-width="1.3" stroke-linecap="round" fill="none"/>
            <rect x="53" y="63" width="30" height="4" rx="1" fill="rgba(255,255,255,.1)"/>
        </g>
        <g>
            <rect x="42" y="74" width="7" height="7" rx="1.5" fill="rgba(90,154,255,.1)" stroke="rgba(90,154,255,.4)" stroke-width=".7"/>
            <rect x="53" y="75" width="26" height="4" rx="1" fill="rgba(255,255,255,.08)"/>
        </g>
        <circle cx="106" cy="74" r="17" fill="rgba(22,70,210,.08)" stroke="rgba(90,154,255,.5)" stroke-width="1.6"/>
        <circle cx="106" cy="74" r="10" fill="rgba(10,14,26,.4)" stroke="rgba(90,154,255,.3)" stroke-width=".8"/>
        <path d="M101 74 l3 3 l7 -8" stroke="#22c55e" stroke-width="1.8" stroke-linecap="round" fill="none"/>
        <line x1="118" y1="86" x2="130" y2="98" stroke="rgba(90,154,255,.55)" stroke-width="3.2" stroke-linecap="round"/>
    </svg>