<svg viewBox="0 0 160 120" fill="none" xmlns="http://www.w3.org/2000/svg" aria-hidden="true">
        <defs><radialGradient id="slf-glow" cx="80" cy="60" r="46" gradientUnits="userSpaceOnUse"><stop stop-color="#1646D2" stop-opacity=".18"/><stop offset="1" stop-color="#1646D2" stop-opacity="0"/></radialGradient>
        <linearGradient id="slf-b" x1="40" y1="60" x2="120" y2="60" gradientUnits="userSpaceOnUse"><stop stop-color="#5a9aff"/><stop offset="1" stop-color="#0F3399"/></linearGradient></defs>
        <ellipse cx="80" cy="60" rx="46" ry="24" fill="url(#slf-glow)"/>
        <path d="M40 60 C52 54 70 52 92 56 C104 58 112 60 116 64 C112 68 104 66 92 64 C70 60 52 66 40 60 Z" fill="rgba(22,70,210,.38)" stroke="url(#slf-b)" stroke-width="1.3"/>
        <g stroke="rgba(255,255,255,.18)" stroke-width=".7">
            <path d="M56 56 C54 60 54 60 56 64"/><path d="M66 55 C64 60 64 60 66 65"/><path d="M76 56 C74 60 74 60 76 64"/><path d="M86 58 C85 61 85 61 86 64"/><path d="M96 59 C95 61 95 61 96 63"/>
        </g>
        <circle cx="44" cy="60" r="5" fill="rgba(22,70,210,.45)" stroke="rgba(90,154,255,.6)" stroke-width="1"/>
        <line x1="41" y1="56" x2="26" y2="48" stroke="rgba(90,154,255,.7)" stroke-width="1.1" stroke-linecap="round"/>
        <line x1="41" y1="64" x2="26" y2="72" stroke="rgba(90,154,255,.7)" stroke-width="1.1" stroke-linecap="round"/>
        <line x1="114" y1="62" x2="132" y2="54" stroke="rgba(90,154,255,.6)" stroke-width="1.1" stroke-linecap="round"/>
        <line x1="116" y1="64" x2="134" y2="64" stroke="rgba(90,154,255,.6)" stroke-width="1.1" stroke-linecap="round"/>
        <line x1="114" y1="66" x2="132" y2="74" stroke="rgba(90,154,255,.6)" stroke-width="1.1" stroke-linecap="round"/>
        <g stroke="url(#slf-b)" stroke-width="1.2" stroke-linecap="round" fill="none">
            <path d="M58 63 L54 72"/><path d="M70 62 L68 73"/><path d="M82 62 L82 72"/><path d="M94 62 L96 71"/>
            <path d="M58 57 L54 49"/><path d="M70 56 L68 47"/><path d="M82 56 L82 48"/>
        </g>
        <ellipse cx="48" cy="58" rx="1.4" ry="1" fill="rgba(255,255,255,.3)"/>
    </svg>