<svg viewBox="0 0 160 120" fill="none" xmlns="http://www.w3.org/2000/svg" aria-hidden="true">
        <defs><radialGradient id="spd-glow" cx="80" cy="60" r="46" gradientUnits="userSpaceOnUse"><stop stop-color="#1646D2" stop-opacity=".18"/><stop offset="1" stop-color="#1646D2" stop-opacity="0"/></radialGradient>
        <linearGradient id="spd-b" x1="80" y1="48" x2="80" y2="76" gradientUnits="userSpaceOnUse"><stop stop-color="#5a9aff"/><stop offset="1" stop-color="#0F3399"/></linearGradient></defs>
        <ellipse cx="80" cy="60" rx="46" ry="42" fill="url(#spd-glow)"/>
        <g stroke="rgba(90,154,255,.3)" stroke-width=".8" fill="none">
            <line x1="80" y1="60" x2="80" y2="14"/><line x1="80" y1="60" x2="120" y2="32"/><line x1="80" y1="60" x2="132" y2="74"/>
            <line x1="80" y1="60" x2="108" y2="102"/><line x1="80" y1="60" x2="52" y2="102"/><line x1="80" y1="60" x2="28" y2="74"/><line x1="80" y1="60" x2="40" y2="32"/>
            <path d="M80 30 C95 31 106 41 108 50"/><path d="M108 50 C111 62 105 78 95 84"/>
            <path d="M95 84 C82 88 66 84 60 76"/><path d="M60 76 C53 65 56 49 64 43"/>
            <path d="M64 43 C70 36 74 33 80 30"/>
            <path d="M80 22 C103 24 119 40 122 56" opacity=".6"/><path d="M122 56 C126 74 116 96 100 102" opacity=".6"/>
            <path d="M100 102 C80 108 56 100 47 88" opacity=".6"/><path d="M47 88 C36 71 40 46 52 37" opacity=".6"/><path d="M52 37 C62 28 70 25 80 22" opacity=".6"/>
        </g>
        <ellipse cx="80" cy="64" rx="9" ry="11" fill="rgba(22,70,210,.45)" stroke="url(#spd-b)" stroke-width="1.3"/>
        <circle cx="80" cy="52" r="5.5" fill="rgba(22,70,210,.5)" stroke="rgba(90,154,255,.7)" stroke-width="1"/>
        <circle cx="78" cy="51" r="1" fill="#fff" opacity=".5"/><circle cx="82" cy="51" r="1" fill="#fff" opacity=".5"/>
        <g stroke="url(#spd-b)" stroke-width="1.6" stroke-linecap="round" fill="none">
            <path d="M73 60 L58 52 L50 56"/><path d="M73 64 L56 64 L48 70"/><path d="M73 68 L58 78 L52 84"/><path d="M74 56 L62 46 L56 42"/>
            <path d="M87 60 L102 52 L110 56"/><path d="M87 64 L104 64 L112 70"/><path d="M87 68 L102 78 L108 84"/><path d="M86 56 L98 46 L104 42"/>
        </g>
    </svg>