<svg viewBox="0 0 160 120" fill="none" xmlns="http://www.w3.org/2000/svg" aria-hidden="true">
        <defs><linearGradient id="ttr-w" x1="20" y1="30" x2="100" y2="90" gradientUnits="userSpaceOnUse"><stop stop-color="#1a2540"/><stop offset="1" stop-color="#0e1220"/></linearGradient>
        <linearGradient id="ttr-d" x1="0" y1="0" x2="0" y2="1"><stop stop-color="#5a9aff"/><stop offset="1" stop-color="#1646D2"/></linearGradient></defs>
        <rect x="20" y="42" width="74" height="50" rx="4" fill="url(#ttr-w)" stroke="rgba(255,255,255,.15)" stroke-width="1"/>
        <g stroke="rgba(90,154,255,.2)" stroke-width=".9" fill="none">
            <path d="M26 52 C44 49 66 54 88 50"/><path d="M26 62 C46 66 68 60 88 64"/><path d="M26 74 C44 70 66 77 88 73"/><path d="M26 84 C48 87 70 81 88 85"/>
        </g>
        <g transform="translate(46,66)" opacity=".9">
            <ellipse cx="0" cy="0" rx="2" ry="5" fill="rgba(245,158,11,.45)" stroke="#f59e0b" stroke-width=".6"/>
            <circle cx="0" cy="-5.5" r="1.6" fill="#fbbf24"/><line x1="-1" y1="-6.5" x2="-3" y2="-9" stroke="#f59e0b" stroke-width=".5"/><line x1="1" y1="-6.5" x2="3" y2="-9" stroke="#f59e0b" stroke-width=".5"/>
        </g>
        <g transform="translate(64,76)" opacity=".75">
            <ellipse cx="0" cy="0" rx="1.7" ry="4" fill="rgba(245,158,11,.4)" stroke="#f59e0b" stroke-width=".5"/>
            <circle cx="0" cy="-4.5" r="1.3" fill="#fbbf24"/>
        </g>
        <path d="M118 24 C108 36 104 44 104 50 a8 8 0 0 0 16 0 C120 44 124 36 118 24 Z" fill="rgba(22,70,210,.25)" stroke="url(#ttr-d)" stroke-width="1.2"/>
        <ellipse cx="113" cy="48" rx="2.4" ry="3.4" fill="rgba(255,255,255,.25)"/>
        <path d="M104 62 C103 70 100 74 100 78 a4.5 4.5 0 0 0 9 0 C109 74 106 70 104 62 Z" fill="rgba(22,70,210,.2)" stroke="rgba(90,154,255,.5)" stroke-width="1"/>
        <path d="M124 66 C123 73 120 77 120 80 a4 4 0 0 0 8 0 C128 77 125 73 124 66 Z" fill="rgba(22,70,210,.18)" stroke="rgba(90,154,255,.45)" stroke-width="1"/>
    </svg>