<svg viewBox="0 0 160 120" fill="none" xmlns="http://www.w3.org/2000/svg" aria-hidden="true">
        <defs><linearGradient id="wsp-nest" x1="80" y1="20" x2="80" y2="64" gradientUnits="userSpaceOnUse"><stop stop-color="#1a2540"/><stop offset="1" stop-color="#0e1220"/></linearGradient>
        <linearGradient id="wsp-b" x1="0" y1="0" x2="1" y2="0"><stop stop-color="#5a9aff"/><stop offset="1" stop-color="#0F3399"/></linearGradient></defs>
        <path d="M30 22 L130 22" stroke="rgba(255,255,255,.18)" stroke-width="2" stroke-linecap="round"/>
        <line x1="80" y1="22" x2="80" y2="30" stroke="rgba(255,255,255,.15)" stroke-width="1.2"/>
        <path d="M80 30 C66 32 58 44 58 54 C58 64 68 70 80 70 C92 70 102 64 102 54 C102 44 94 32 80 30 Z" fill="url(#wsp-nest)" stroke="rgba(90,154,255,.45)" stroke-width="1.2"/>
        <g stroke="rgba(90,154,255,.2)" stroke-width=".7" fill="none">
            <path d="M64 42 C72 40 88 40 96 42"/><path d="M61 50 C72 48 88 48 99 50"/><path d="M62 58 C72 56 88 56 98 58"/>
        </g>
        <circle cx="80" cy="66" r="4" fill="rgba(10,14,26,.7)" stroke="rgba(90,154,255,.4)" stroke-width=".7"/>
        <g transform="translate(112,86) rotate(20)">
            <ellipse cx="0" cy="0" rx="9" ry="6" fill="rgba(245,158,11,.35)" stroke="#f59e0b" stroke-width="1"/>
            <line x1="-7" y1="-3" x2="-7" y2="3" stroke="#0e1220" stroke-width="2"/><line x1="-2" y1="-5" x2="-2" y2="5" stroke="#0e1220" stroke-width="2"/><line x1="3" y1="-4" x2="3" y2="4" stroke="#0e1220" stroke-width="2"/>
            <circle cx="-12" cy="0" r="3.5" fill="rgba(245,158,11,.5)" stroke="#f59e0b" stroke-width=".8"/>
            <path d="M9 0 L16 -1 L13 2 Z" fill="#fbbf24"/>
            <ellipse cx="-1" cy="-7" rx="7" ry="3" fill="rgba(90,154,255,.25)" stroke="rgba(90,154,255,.5)" stroke-width=".6"/>
            <ellipse cx="-1" cy="7" rx="6" ry="2.6" fill="rgba(90,154,255,.2)" stroke="rgba(90,154,255,.45)" stroke-width=".6"/>
            <line x1="-15" y1="-2" x2="-19" y2="-5" stroke="#f59e0b" stroke-width=".7"/><line x1="-15" y1="1" x2="-20" y2="0" stroke="#f59e0b" stroke-width=".7"/>
        </g>
        <circle cx="44" cy="80" r="1.4" fill="#fbbf24" opacity=".6"/><circle cx="50" cy="92" r="1.1" fill="#fbbf24" opacity=".5"/>
    </svg>